<svg width="176" height="341" viewBox="0 0 176 341" fill="none" xmlns="http://www.w3.org/2000/svg">
<line y1="-0.5" x2="34.5719" y2="-0.5" transform="matrix(-0.672989 0.739652 -0.672989 -0.739652 23.3936 2.54855)" stroke="#C9C9C9"/>
<line y1="-0.5" x2="62.6615" y2="-0.5" transform="matrix(-0.672989 0.739652 -0.672989 -0.739652 43.7518 2.54855)" stroke="#C9C9C9"/>
<line y1="-0.5" x2="101.555" y2="-0.5" transform="matrix(-0.672989 0.739652 -0.672989 -0.739652 68.4725 0.950409)" stroke="#C9C9C9"/>
<line y1="-0.5" x2="136.127" y2="-0.5" transform="matrix(-0.672989 0.739652 -0.672989 -0.739652 91.739 0.950409)" stroke="#C9C9C9"/>
<line y1="-0.5" x2="166.377" y2="-0.5" transform="matrix(-0.672989 0.739652 -0.672989 -0.739652 113.551 0.950409)" stroke="#C9C9C9"/>
<line y1="-0.5" x2="200.949" y2="-0.5" transform="matrix(-0.672989 0.739652 -0.672989 -0.739652 135.364 0.950409)" stroke="#C9C9C9"/>
<line y1="-0.5" x2="231.199" y2="-0.5" transform="matrix(-0.672989 0.739652 -0.672989 -0.739652 157.176 0.950409)" stroke="#C9C9C9"/>
<line y1="-0.5" x2="257.128" y2="-0.5" transform="matrix(-0.672989 0.739652 -0.672989 -0.739652 174.626 7.34554)" stroke="#C9C9C9"/>
<line y1="-0.5" x2="257.128" y2="-0.5" transform="matrix(-0.672989 0.739652 -0.672989 -0.739652 173.172 34.5116)" stroke="#C9C9C9"/>
<line y1="-0.5" x2="257.892" y2="-0.5" transform="matrix(-0.670998 0.741459 -0.79327 -0.60887 174.626 55.8577)" stroke="#C9C9C9"/>
<line y1="-0.5" x2="257.985" y2="-0.5" transform="matrix(-0.670756 0.741678 -0.793463 -0.608618 174.626 81.3025)" stroke="#C9C9C9"/>
<line y1="-0.5" x2="259.073" y2="-0.5" transform="matrix(-0.667938 0.744217 -0.795697 -0.605695 174.626 105.408)" stroke="#C9C9C9"/>
<line y1="-0.5" x2="260.142" y2="-0.5" transform="matrix(-0.670784 0.741652 -0.79344 -0.608648 174.626 130.853)" stroke="#C9C9C9"/>
<line y1="-0.5" x2="244.164" y2="-0.5" transform="matrix(-0.672989 0.739652 -0.672989 -0.739652 174.626 157.574)" stroke="#C9C9C9"/>
<line y1="-0.5" x2="212.601" y2="-0.5" transform="matrix(-0.670303 0.742087 -0.793824 -0.608148 174.626 180.403)" stroke="#C9C9C9"/>
<line y1="-0.5" x2="177.131" y2="-0.5" transform="matrix(-0.673181 0.739478 -0.791524 -0.611138 174.626 207.187)" stroke="#C9C9C9"/>
<line y1="-0.5" x2="147.774" y2="-0.5" transform="matrix(-0.669148 0.743129 -0.79474 -0.606949 174.626 229.954)" stroke="#C9C9C9"/>
<line y1="-0.5" x2="111.136" y2="-0.5" transform="matrix(-0.667311 0.744779 -0.796191 -0.605045 174.626 255.399)" stroke="#C9C9C9"/>
<line y1="-0.5" x2="77.7867" y2="-0.5" transform="matrix(-0.672989 0.739652 -0.672989 -0.739652 174.626 280.634)" stroke="#C9C9C9"/>
<line y1="-0.5" x2="43.2149" y2="-0.5" transform="matrix(-0.672989 0.739652 -0.672989 -0.739652 174.626 306.207)" stroke="#C9C9C9"/>
<line y1="-0.5" x2="8.64297" y2="-0.5" transform="matrix(-0.672989 0.739652 -0.672989 -0.739652 174.626 331.778)" stroke="#C9C9C9"/>
</svg>
