<svg width="32" height="32" viewBox="0 0 32 32" fill="none" xmlns="http://www.w3.org/2000/svg">
<path d="M6.89453 21.7744C13.8837 25.269 18.0772 25.269 25.0664 21.7744" stroke="#7A7A7B" stroke-width="2" stroke-linecap="round" stroke-linejoin="round"/>
<path d="M20.8729 23.8708L22.2707 26.6665C22.2707 26.6665 28.1011 24.8102 29.9589 21.7741C29.9589 20.3762 30.6997 10.3859 25.7653 7.09676C23.6686 5.69892 20.174 5 20.174 5L18.7761 7.79568H15.9805" stroke="#7A7A7B" stroke-width="2" stroke-linecap="round" stroke-linejoin="round"/>
<path d="M11.1255 23.8708L9.72763 26.6665C9.72763 26.6665 3.89724 24.8102 2.03951 21.7741C2.03951 20.3762 1.29866 10.3859 6.23303 7.09676C8.32979 5.69892 11.8244 5 11.8244 5L13.2222 7.79568H16.0179" stroke="#7A7A7B" stroke-width="2" stroke-linecap="round" stroke-linejoin="round"/>
<path d="M11.085 18.9781C9.92763 18.9781 8.98828 17.727 8.98828 16.1824C8.98828 14.6378 9.92763 13.3867 11.085 13.3867C12.2425 13.3867 13.1818 14.6378 13.1818 16.1824C13.1818 17.727 12.2425 18.9781 11.085 18.9781ZM20.8699 18.9781C19.7125 18.9781 18.7732 17.727 18.7732 16.1824C18.7732 14.6378 19.7125 13.3867 20.8699 13.3867C22.0273 13.3867 22.9667 14.6378 22.9667 16.1824C22.9667 17.727 22.0273 18.9781 20.8699 18.9781Z" stroke="#7A7A7B" stroke-width="2" stroke-linecap="round" stroke-linejoin="round"/>
</svg>
